<?xml version="1.0" encoding="utf-8"?>
<!-- Generator: Adobe Illustrator 25.4.1, SVG Export Plug-In . SVG Version: 6.00 Build 0)  -->
<svg version="1.1"
	 id="_x31_" inkscape:version="1.0.1 (3bc2e813f5, 2020-09-07)" sodipodi:docname="logo.svg" xmlns:cc="http://creativecommons.org/ns#" xmlns:dc="http://purl.org/dc/elements/1.1/" xmlns:inkscape="http://www.inkscape.org/namespaces/inkscape" xmlns:rdf="http://www.w3.org/1999/02/22-rdf-syntax-ns#" xmlns:sodipodi="http://sodipodi.sourceforge.net/DTD/sodipodi-0.dtd" xmlns:svg="http://www.w3.org/2000/svg"
	 xmlns="http://www.w3.org/2000/svg" xmlns:xlink="http://www.w3.org/1999/xlink" x="0px" y="0px" viewBox="0 0 1000 200"
	 style="enable-background:new 0 0 1000 200;" xml:space="preserve">
<style type="text/css">
	.st0{fill:#F6F2D6;}
</style>
<path id="path841-5" class="st0" d="M28.5,5.2l19.8,21.7L68.1,5.2c0.4,0.4,12.8,12.1,13.2,12.5c-1.7,1.7-31.4,31.4-33.1,33.1
	c4.1,4.1-36.9-37.2-32.8-33.1C14.8,18.4,29.1,4.6,28.5,5.2z M268.8,5.2c0.9,1,18.9,20.7,19.8,21.7c6.6-7.2,13.2-14.5,19.8-21.7
	l13.2,12.5c-3.3,3.3-29.7,29.7-33.1,33.1l-32.8-33.1L268.8,5.2z M790.5,59.3v117.1h56.9v18.4h-74.8V59.5L790.5,59.3z M14.5,59.5
	h74.8V98H71.7V77H33.4v28.3l55.5,32.1v57.1l-74.4,0.2v-38.7h17.9v21c12.7,0,25.3,0,38,0v-22.4c8,4.6-63.9-37-56-32.3V59.5z
	 M145.9,59.5h51.2v17.2h-16.1v100.6h17.2v17.5h-51v-17.5h15.8V76.8h-17.2V59.5z M254.9,59.5h74.8V98H312V77h-38.2v28.3
	c18.5,10.7,37,21.4,55.5,32.1v57.1c-24.8,0.1-49.6,0.2-74.4,0.2v-38.7h17.9v21h38v-22.4c-18.7-10.8-37.3-21.6-56-32.3V59.5z
	 M386.2,59.5h51.2v17.2h-16.1v100.6h17.2v17.5h-51v-17.5h15.8V76.8h-17.2V59.5z M495.2,59.5h17.9v57.8c6.6-10.5,29.6-47.3,36.1-57.8
	H575c-15,21.3-29.9,42.7-44.9,64c6.3,9.5,40.9,61.8,47.2,71.3h-27.9c-10.9-20.1-21.9-40.3-32.8-60.4h-3.5v60.4h-17.9V59.5z
	 M633.9,59.5h74.8v135.3h-74.8V59.5z M911.2,59.5h74.8v135.3h-18.9v-60.4h-38v60.4h-17.9V59.5z M929.2,76.3v41.1h38V76.3H929.2z
	 M651.8,76.5v99.9h38V76.5H651.8z"/>
</svg>
