<?xml version="1.0" encoding="utf-8"?>
<!-- Generator: Adobe Illustrator 25.4.1, SVG Export Plug-In . SVG Version: 6.00 Build 0)  -->
<svg version="1.1" id="Layer_1" xmlns="http://www.w3.org/2000/svg" xmlns:xlink="http://www.w3.org/1999/xlink" x="0px" y="0px"
	 viewBox="0 0 500 500" style="enable-background:new 0 0 500 500;" xml:space="preserve">
<path d="M250,0C112.1,0,0,112.1,0,250c0,137.8,112.1,250,250,250c137.8,0,250-112.2,250-250C500,112.1,387.8,0,250,0z M263.3,170.5
	c20.7-0.7,57.7-3.2,95.5-12.4c7.8,31.5,11.2,60.7,12.5,78.5h-108V170.5z M263.3,143.9V27.8c35.9,6.1,64.2,37.5,84.4,93.5
	c1.3,3.7,2.6,7.5,3.8,11.2C316.7,140.8,282.1,143.2,263.3,143.9z M236.7,27.8V144c-16-0.4-51.7-2.2-88.7-10.3
	c1.3-4.2,2.7-8.3,4.2-12.4C172.5,65.2,200.8,33.9,236.7,27.8z M236.7,170.7v66h-108c1.2-17.5,4.5-46.2,12.1-77.3
	C180.5,168.4,218.4,170.3,236.7,170.7z M102,236.7H27c2.3-39.5,15-76.2,35.2-107.6c15.9,10.1,34.1,17.7,52.9,23.5
	C106.8,186.5,103.2,217.9,102,236.7z M102,263.3c1.2,18.8,4.8,50.2,13.1,84.1c-18.7,5.8-37,13.4-52.9,23.5
	C42,339.5,29.4,302.8,27,263.3H102z M128.7,263.3h108v66c-18.3,0.4-56.2,2.3-95.9,11.3C133.2,309.5,129.9,280.8,128.7,263.3z
	 M236.7,356v116.3c-35.9-6.1-64.2-37.5-84.4-93.5c-1.5-4.1-2.9-8.3-4.2-12.4C185,358.2,220.6,356.3,236.7,356z M263.3,472.2V356.1
	c18.8,0.7,53.4,3.1,88.3,11.4c-1.2,3.8-2.5,7.5-3.8,11.2C327.5,434.8,299.2,466.1,263.3,472.2z M263.3,329.5v-66.1h108
	c-1.2,17.8-4.6,47-12.5,78.5C321,332.7,284.1,330.1,263.3,329.5z M398,263.3h75c-2.4,40.6-15.7,78.2-36.9,110.2
	c-15.3-10.4-33.1-18.3-51.6-24.4C393.1,314.5,396.7,282.4,398,263.3z M398,236.7c-1.2-19.1-4.9-51.2-13.5-85.8
	c18.5-6.1,36.3-14,51.6-24.4c21.3,31.9,34.5,69.6,36.9,110.2H398z M420,105.2c-12.6,8.3-27.3,14.9-42.8,20
	c-1.4-4.4-2.9-8.7-4.4-13.1c-10.1-27.9-22.4-50.7-36.8-68.4C368.6,57.5,397.3,78.7,420,105.2z M164,43.8
	c-14.4,17.7-26.8,40.5-36.8,68.4c-1.8,4.9-3.4,9.8-4.9,14.7c-15.8-4.9-31.1-11.2-44.2-19.4C101,79.9,130.4,57.9,164,43.8z
	 M78.1,392.4c13.2-8.1,28.4-14.4,44.2-19.4c1.5,4.9,3.2,9.8,4.9,14.7c10.1,27.9,22.4,50.7,36.8,68.4
	C130.4,442.1,101,420.1,78.1,392.4z M336,456.2c14.4-17.7,26.8-40.5,36.8-68.4c1.6-4.3,3-8.7,4.4-13.1c15.5,5.2,30.2,11.7,42.8,20
	C397.3,421.3,368.6,442.5,336,456.2z"/>
</svg>
