<?xml version="1.0" encoding="utf-8"?>
<!-- Generator: Adobe Illustrator 25.4.1, SVG Export Plug-In . SVG Version: 6.00 Build 0)  -->
<svg version="1.1" id="Mail_Icon" xmlns="http://www.w3.org/2000/svg" xmlns:xlink="http://www.w3.org/1999/xlink" x="0px" y="0px"
	 viewBox="0 0 500 500" style="enable-background:new 0 0 500 500;" xml:space="preserve">
<path d="M244.9,284.9"/>
<style type="text/css">
	*{fill:#F6F2D6;}
</style>
<g>
	<path d="M244.2,299L15.1,114.9C9,110,0,114.4,0,122.2v301.9c0,5.1,4.2,9.3,9.3,9.3H250h240.7c5.1,0,9.3-4.2,9.3-9.3V122.2
		c0-7.8-9-12.1-15.1-7.2L255.8,299C252.4,301.8,247.6,301.8,244.2,299z"/>
	<path d="M463.4,83.2c6.9-5.5,3-16.5-5.8-16.5H250H42.3c-8.8,0-12.7,11.1-5.8,16.5L244.2,249c3.4,2.7,8.2,2.7,11.6,0L463.4,83.2z"/>
</g>
</svg>
