<?xml version="1.0" encoding="utf-8"?>
<!-- Generator: Adobe Illustrator 25.4.1, SVG Export Plug-In . SVG Version: 6.00 Build 0)  -->
<svg version="1.1" id="phone_x5F_icon_00000077288088323112546530000009203518042252365756_"
	 xmlns="http://www.w3.org/2000/svg" xmlns:xlink="http://www.w3.org/1999/xlink" x="0px" y="0px" viewBox="0 0 500 500"
	 style="enable-background:new 0 0 500 500;" xml:space="preserve">
	 <style type="text/css">
		*{fill:#F6F2D6;}
	</style>
	<path id="phone_x5F_icon" d="M324.2,481.9v-80.6c0-10-8.1-18.1-18.1-18.1h-36.3c-2.1,0-10.2-0.9-15.9-8c-4.8-5.8-7.4-16.5-7.4-28.8
	c0-43.3-0.3-96.5-0.3-96.5s0.3-53.2,0.3-96.5c0-12.3,2.6-22.9,7.4-28.8c5.7-7,13.9-8,15.9-8h36.3c10,0,18.1-8.1,18.1-18.1V18.1
	c0-10-8.1-18.1-18.1-18.1h-36.3c-19.7,0-46.4,24.2-60.4,48.4C187,87.3,175.8,190.9,175.8,250s11.2,162.7,33.6,201.6
	c14,24.2,40.7,48.4,60.4,48.4h36.3C316.1,500,324.2,491.9,324.2,481.9z"/>
</svg>
